<?xml version="1.0" encoding="UTF-8" standalone="no"?>
<!-- Created with Inkscape (http://www.inkscape.org/) -->

<svg
   version="1.1"
   id="svg1"
   width="700"
   height="700"
   viewBox="0 0 700 700"
   sodipodi:docname="icon.svg"
   xml:space="preserve"
   inkscape:export-filename="icon.svg"
   inkscape:export-xdpi="96"
   inkscape:export-ydpi="96"
   inkscape:version="1.3 (0e150ed6c4, 2023-07-21)"
   xmlns:inkscape="http://www.inkscape.org/namespaces/inkscape"
   xmlns:sodipodi="http://sodipodi.sourceforge.net/DTD/sodipodi-0.dtd"
   xmlns="http://www.w3.org/2000/svg"
   xmlns:svg="http://www.w3.org/2000/svg"><defs
     id="defs1"><linearGradient
       x1="0"
       y1="0"
       x2="1"
       y2="0"
       gradientUnits="userSpaceOnUse"
       gradientTransform="matrix(-2673.78,-5487.36,-5487.36,2673.78,6419.22,9394.99)"
       spreadMethod="pad"
       id="linearGradient6"><stop
         style="stop-opacity:1;stop-color:#57c9ee"
         offset="0"
         id="stop4" /><stop
         style="stop-opacity:1;stop-color:#121932"
         offset="0.9621398"
         id="stop5" /><stop
         style="stop-opacity:1;stop-color:#121932"
         offset="1"
         id="stop6" /></linearGradient><clipPath
       clipPathUnits="userSpaceOnUse"
       id="clipPath6"><path
         d="m 3876.12,3865.83 c 0,0 -318.9,1191.38 648.54,1779.01 0,0 367.27,220.36 1108.97,252.61 0,0 -915.48,-227.53 -954.9,-1069.56 0,0 125.41,442.51 535.68,680.79 0,0 155.86,102.12 446.09,193.49 290.23,91.37 558.97,191.69 802.61,440.72 243.66,249.02 473.87,676.31 508.81,826.8 0,0 -401.31,-622.57 -1128.68,-801.72 0,0 -129.89,-27.77 -309.04,-54.64 -179.16,-26.88 -677.21,-86.89 -1128.68,-328.75 -451.47,-241.86 -666.46,-878.76 -679.89,-1193.17 0,0 -354.73,519.55 -343.98,1365.16 10.75,845.61 252.61,1225.42 698.7,1644.64 0,0 -870.69,-515.97 -870.69,-1709.14 0,-1193.17 666.46,-2026.24 666.46,-2026.24 z"
         id="path6" /></clipPath><linearGradient
       x1="0"
       y1="0"
       x2="1"
       y2="0"
       gradientUnits="userSpaceOnUse"
       gradientTransform="matrix(-2673.78,-5487.36,-5487.36,2673.78,6523.17,9344.34)"
       spreadMethod="pad"
       id="linearGradient9"><stop
         style="stop-opacity:1;stop-color:#57c9ee"
         offset="0"
         id="stop7" /><stop
         style="stop-opacity:1;stop-color:#121932"
         offset="0.9621398"
         id="stop8" /><stop
         style="stop-opacity:1;stop-color:#121932"
         offset="1"
         id="stop9" /></linearGradient><clipPath
       clipPathUnits="userSpaceOnUse"
       id="clipPath9"><path
         d="m 3682.63,4978.38 c 0,0 -456.84,1279.17 274.11,2230.48 0,0 302.32,382.94 870.69,553.59 564.34,204.24 865.32,373.54 940.57,494.47 0,0 142.42,-171.99 10.74,-400.42 -131.68,-228.42 -395.03,-448.78 -919.06,-545.52 0,0 338.6,-211.41 911.89,-125.41 573.3,85.99 1060.61,490.88 1264.84,723.78 204.24,232.91 429.97,530.3 515.97,906.53 0,0 35.83,26.87 37.62,-48.37 1.79,-75.25 10.75,-919.07 -763.2,-1623.15 -773.95,-704.07 -1607.02,-790.07 -1607.02,-790.07 0,0 -555.38,-128.99 -1024.77,-541.05 -469.38,-412.05 -512.38,-834.86 -512.38,-834.86 z"
         id="path9" /></clipPath><linearGradient
       x1="0"
       y1="0"
       x2="1"
       y2="0"
       gradientUnits="userSpaceOnUse"
       gradientTransform="matrix(-2673.78,-5487.36,-5487.36,2673.78,7188.37,9020.21)"
       spreadMethod="pad"
       id="linearGradient12"><stop
         style="stop-opacity:1;stop-color:#57c9ee"
         offset="0"
         id="stop10" /><stop
         style="stop-opacity:1;stop-color:#121932"
         offset="0.9621398"
         id="stop11" /><stop
         style="stop-opacity:1;stop-color:#121932"
         offset="1"
         id="stop12" /></linearGradient><clipPath
       clipPathUnits="userSpaceOnUse"
       id="clipPath12"><path
         d="m 6011.64,7336.06 c 0,0 533.88,290.23 723.79,795.45 0,0 53.75,120.93 86.89,224.84 33.14,103.91 74.35,239.17 92.26,352.04 17.92,112.86 64.5,247.23 223.95,247.23 159.45,0 186.32,-173.78 186.32,-275.9 0,-102.12 -152.28,-576.88 -550,-906.52 -397.73,-329.65 -763.21,-437.14 -763.21,-437.14 z"
         id="path12" /></clipPath><linearGradient
       x1="0"
       y1="0"
       x2="1"
       y2="0"
       gradientUnits="userSpaceOnUse"
       gradientTransform="matrix(-2673.78,-5487.36,-5487.36,2673.78,6887.62,9166.75)"
       spreadMethod="pad"
       id="linearGradient15"><stop
         style="stop-opacity:1;stop-color:#57c9ee"
         offset="0"
         id="stop13" /><stop
         style="stop-opacity:1;stop-color:#121932"
         offset="0.9621398"
         id="stop14" /><stop
         style="stop-opacity:1;stop-color:#121932"
         offset="1"
         id="stop15" /></linearGradient><clipPath
       clipPathUnits="userSpaceOnUse"
       id="clipPath15"><path
         d="m 6602.85,8830.21 c 0,0 213.2,-25.08 193.49,-231.11 -19.71,-206.03 -259.77,-729.16 -541.04,-940.56 0,0 154.07,274.11 182.73,680.79 0,0 8.96,113.76 -12.54,248.13 -21.5,134.36 22.4,247.23 177.36,242.75 z"
         id="path15" /></clipPath><clipPath
       clipPathUnits="userSpaceOnUse"
       id="clipPath19"><rect
         style="fill:#000000;fill-opacity:1;stroke:#ffffff;stroke-width:0.852378;stroke-linecap:butt;stroke-linejoin:round;stroke-dasharray:none;stroke-opacity:1;paint-order:markers fill stroke"
         id="rect19"
         width="214.30484"
         height="249.55254"
         x="1369.7666"
         y="59.27179" /></clipPath></defs><sodipodi:namedview
     id="namedview1"
     pagecolor="#ffffff"
     bordercolor="#000000"
     borderopacity="0.25"
     inkscape:showpageshadow="2"
     inkscape:pageopacity="0.0"
     inkscape:pagecheckerboard="0"
     inkscape:deskcolor="#d1d1d1"
     inkscape:zoom="0.35001786"
     inkscape:cx="-45.711953"
     inkscape:cy="307.12719"
     inkscape:window-width="1584"
     inkscape:window-height="848"
     inkscape:window-x="0"
     inkscape:window-y="0"
     inkscape:window-maximized="1"
     inkscape:current-layer="g1" /><g
     id="g1"
     inkscape:groupmode="layer"
     inkscape:label="1"
     transform="translate(-427.95465,-245.91736)"><g
       id="g19"
       transform="translate(16.000026,3.9999995)"><path
         style="fill:#ffffff;fill-opacity:1;stroke:#ffffff;stroke-width:4.81168;stroke-linecap:round;stroke-linejoin:miter;stroke-dasharray:none;stroke-opacity:1"
         d="M 1346.419,35.162478 V 320.16248 h 261 V 35.162478 h -261 m 260,1 V 319.16248 h -259 V 36.162478 h 259 m -92,105.000002 c 21.1977,-8.82534 41.2236,-23.03859 51.7299,-44.000002 3.5095,-7.0019 11.6873,-32.2713 -4.7261,-29.75618 -8.8421,1.35492 -8.7353,14.05283 -10.7245,20.75618 -4.2978,14.483102 -10.3432,27.741702 -20.7045,38.910502 -4.7823,5.15495 -11.1542,8.65893 -15.5748,14.0895 m 9,-15 c 11.5582,-8.50808 19.831,-25.24037 23.101,-39.000002 1.7633,-7.41951 -3.876,-18.30333 -12.8727,-12.82098 -4.5175,2.75287 -3.3888,10.35541 -3.0733,14.82098 0.9347,13.227182 -3.7555,24.545412 -7.155,37.000002 m 59,-53.000002 c -2.076,14.0566 -11.3022,27.384512 -20.2747,38.000002 -27.1701,32.14518 -64.4791,46.61516 -104.7253,33 19.0511,-8.19661 51.9904,-15.63888 43,-44 -8.0404,3.6821 -14.7117,9.96709 -23,13.57563 -20.4814,8.91717 -42.6823,14.10919 -58.9599,30.46373 -28.1322,28.26527 -24.3365,71.61018 -17.0401,106.96064 h 1 c 6.2407,-29.85258 35.8534,-50.64805 63,-60.30787 11.7754,-4.19016 24.2357,-5.6769 36,-10.11728 20.5029,-7.73873 39.9798,-20.51988 54.9104,-36.57485 13.1545,-14.14505 22.2571,-32.10975 26.0857,-51.000002 1.2049,-5.94482 3.9202,-14.83064 0,-20 m -167,60.000002 c -10.7161,10.71607 -20.3769,21.00982 -26.6883,35 -19.4235,43.05509 -4.4684,96.67897 20.6883,134 h 1 c -4.0057,-31.69598 2.27,-66.32275 34,-82.18982 14.6051,-7.30349 31.0762,-8.79773 47,-10.81018 v 1 c -20.4733,6.92612 -40.1119,21.88307 -42,45 h 1 c 12.373,-29.56222 40.0099,-31.71762 65,-44.78473 17.5855,-9.19534 33.4827,-29.06356 39,-48.21527 h -1 c -11.4686,15.05223 -27.1328,26.86791 -45,33.13504 -30.0694,10.54712 -67.2362,5.41323 -88.7608,33.86496 -4.3094,5.69626 -7.6444,12.33237 -10.1752,19 -2.6618,7.01291 -4.7404,14.48299 -5.064,22 h -1 c -13.6108,-32.69177 -22.402,-68.21652 -9.186,-103 2.9001,-7.63281 6.8447,-14.54881 11.8511,-21 3.0604,-3.94357 8.206,-8.10563 9.3349,-13 z"
         id="path18"
         clip-path="url(#clipPath19)"
         transform="matrix(2.8756786,0,0,2.8756786,-3485.1898,62.6543)" /><g
         id="g17"
         transform="translate(57.962021,10.680672)"><path
           id="path4"
           d="m 3876.12,3865.83 c 0,0 -318.9,1191.38 648.54,1779.01 0,0 367.27,220.36 1108.97,252.61 0,0 -915.48,-227.53 -954.9,-1069.56 0,0 125.41,442.51 535.68,680.79 0,0 155.86,102.12 446.09,193.49 290.23,91.37 558.97,191.69 802.61,440.72 243.66,249.02 473.87,676.31 508.81,826.8 0,0 -401.31,-622.57 -1128.68,-801.72 0,0 -129.89,-27.77 -309.04,-54.64 -179.16,-26.88 -677.21,-86.89 -1128.68,-328.75 -451.47,-241.86 -666.46,-878.76 -679.89,-1193.17 0,0 -354.73,519.55 -343.98,1365.16 10.75,845.61 252.61,1225.42 698.7,1644.64 0,0 -870.69,-515.97 -870.69,-1709.14 0,-1193.17 666.46,-2026.24 666.46,-2026.24"
           style="fill:url(#linearGradient6);fill-opacity:1;fill-rule:nonzero;stroke:none"
           transform="matrix(0.13333333,0,0,-0.13333333,0,1440)"
           clip-path="url(#clipPath6)" /><path
           id="path7"
           d="m 3682.63,4978.38 c 0,0 -456.84,1279.17 274.11,2230.48 0,0 302.32,382.94 870.69,553.59 564.34,204.24 865.32,373.54 940.57,494.47 0,0 142.42,-171.99 10.74,-400.42 -131.68,-228.42 -395.03,-448.78 -919.06,-545.52 0,0 338.6,-211.41 911.89,-125.41 573.3,85.99 1060.61,490.88 1264.84,723.78 204.24,232.91 429.97,530.3 515.97,906.53 0,0 35.83,26.87 37.62,-48.37 1.79,-75.25 10.75,-919.07 -763.2,-1623.15 -773.95,-704.07 -1607.02,-790.07 -1607.02,-790.07 0,0 -555.38,-128.99 -1024.77,-541.05 -469.38,-412.05 -512.38,-834.86 -512.38,-834.86"
           style="fill:url(#linearGradient9);fill-opacity:1;fill-rule:nonzero;stroke:none"
           transform="matrix(0.13333333,0,0,-0.13333333,0,1440)"
           clip-path="url(#clipPath9)" /><path
           id="path10"
           d="m 6011.64,7336.06 c 0,0 533.88,290.23 723.79,795.45 0,0 53.75,120.93 86.89,224.84 33.14,103.91 74.35,239.17 92.26,352.04 17.92,112.86 64.5,247.23 223.95,247.23 159.45,0 186.32,-173.78 186.32,-275.9 0,-102.12 -152.28,-576.88 -550,-906.52 -397.73,-329.65 -763.21,-437.14 -763.21,-437.14"
           style="fill:url(#linearGradient12);fill-opacity:1;fill-rule:nonzero;stroke:none"
           transform="matrix(0.13333333,0,0,-0.13333333,0,1440)"
           clip-path="url(#clipPath12)" /><path
           id="path13"
           d="m 6602.85,8830.21 c 0,0 213.2,-25.08 193.49,-231.11 -19.71,-206.03 -259.77,-729.16 -541.04,-940.56 0,0 154.07,274.11 182.73,680.79 0,0 8.96,113.76 -12.54,248.13 -21.5,134.36 22.4,247.23 177.36,242.75"
           style="fill:url(#linearGradient15);fill-opacity:1;fill-rule:nonzero;stroke:none"
           transform="matrix(0.13333333,0,0,-0.13333333,0,1440)"
           clip-path="url(#clipPath15)" /></g></g></g></svg>
