<?xml version="1.0" encoding="UTF-8" standalone="no"?>
<!-- Created with Inkscape (http://www.inkscape.org/) -->

<svg
   width="256.82004mm"
   height="59.790451mm"
   viewBox="0 0 256.82004 59.790451"
   version="1.1"
   id="svg1"
   inkscape:export-filename="logo.png"
   inkscape:export-xdpi="96"
   inkscape:export-ydpi="96"
   inkscape:version="1.3 (0e150ed6c4, 2023-07-21)"
   sodipodi:docname="logo.svg"
   xmlns:inkscape="http://www.inkscape.org/namespaces/inkscape"
   xmlns:sodipodi="http://sodipodi.sourceforge.net/DTD/sodipodi-0.dtd"
   xmlns="http://www.w3.org/2000/svg"
   xmlns:svg="http://www.w3.org/2000/svg">
  <sodipodi:namedview
     id="namedview1"
     pagecolor="#ffffff"
     bordercolor="#000000"
     borderopacity="0.25"
     inkscape:showpageshadow="2"
     inkscape:pageopacity="0.0"
     inkscape:pagecheckerboard="0"
     inkscape:deskcolor="#d1d1d1"
     inkscape:document-units="mm"
     inkscape:zoom="0.54602113"
     inkscape:cx="494.48636"
     inkscape:cy="162.08164"
     inkscape:window-width="1584"
     inkscape:window-height="848"
     inkscape:window-x="0"
     inkscape:window-y="0"
     inkscape:window-maximized="1"
     inkscape:current-layer="layer1" />
  <defs
     id="defs1">
    <linearGradient
       x1="0"
       y1="0"
       x2="1"
       y2="0"
       gradientUnits="userSpaceOnUse"
       gradientTransform="matrix(-2673.78,-5487.36,-5487.36,2673.78,6419.22,9394.99)"
       spreadMethod="pad"
       id="linearGradient6">
      <stop
         style="stop-opacity:1;stop-color:#57c9ee"
         offset="0"
         id="stop4" />
      <stop
         style="stop-opacity:1;stop-color:#121932"
         offset="0.9621398"
         id="stop5" />
      <stop
         style="stop-opacity:1;stop-color:#121932"
         offset="1"
         id="stop6" />
    </linearGradient>
    <clipPath
       clipPathUnits="userSpaceOnUse"
       id="clipPath6">
      <path
         d="m 3876.12,3865.83 c 0,0 -318.9,1191.38 648.54,1779.01 0,0 367.27,220.36 1108.97,252.61 0,0 -915.48,-227.53 -954.9,-1069.56 0,0 125.41,442.51 535.68,680.79 0,0 155.86,102.12 446.09,193.49 290.23,91.37 558.97,191.69 802.61,440.72 243.66,249.02 473.87,676.31 508.81,826.8 0,0 -401.31,-622.57 -1128.68,-801.72 0,0 -129.89,-27.77 -309.04,-54.64 -179.16,-26.88 -677.21,-86.89 -1128.68,-328.75 -451.47,-241.86 -666.46,-878.76 -679.89,-1193.17 0,0 -354.73,519.55 -343.98,1365.16 10.75,845.61 252.61,1225.42 698.7,1644.64 0,0 -870.69,-515.97 -870.69,-1709.14 0,-1193.17 666.46,-2026.24 666.46,-2026.24 z"
         id="path6" />
    </clipPath>
    <linearGradient
       x1="0"
       y1="0"
       x2="1"
       y2="0"
       gradientUnits="userSpaceOnUse"
       gradientTransform="matrix(-2673.78,-5487.36,-5487.36,2673.78,6523.17,9344.34)"
       spreadMethod="pad"
       id="linearGradient9">
      <stop
         style="stop-opacity:1;stop-color:#57c9ee"
         offset="0"
         id="stop7" />
      <stop
         style="stop-opacity:1;stop-color:#121932"
         offset="0.9621398"
         id="stop8" />
      <stop
         style="stop-opacity:1;stop-color:#121932"
         offset="1"
         id="stop9" />
    </linearGradient>
    <clipPath
       clipPathUnits="userSpaceOnUse"
       id="clipPath9">
      <path
         d="m 3682.63,4978.38 c 0,0 -456.84,1279.17 274.11,2230.48 0,0 302.32,382.94 870.69,553.59 564.34,204.24 865.32,373.54 940.57,494.47 0,0 142.42,-171.99 10.74,-400.42 -131.68,-228.42 -395.03,-448.78 -919.06,-545.52 0,0 338.6,-211.41 911.89,-125.41 573.3,85.99 1060.61,490.88 1264.84,723.78 204.24,232.91 429.97,530.3 515.97,906.53 0,0 35.83,26.87 37.62,-48.37 1.79,-75.25 10.75,-919.07 -763.2,-1623.15 -773.95,-704.07 -1607.02,-790.07 -1607.02,-790.07 0,0 -555.38,-128.99 -1024.77,-541.05 -469.38,-412.05 -512.38,-834.86 -512.38,-834.86 z"
         id="path9" />
    </clipPath>
    <linearGradient
       x1="0"
       y1="0"
       x2="1"
       y2="0"
       gradientUnits="userSpaceOnUse"
       gradientTransform="matrix(-2673.78,-5487.36,-5487.36,2673.78,7188.37,9020.21)"
       spreadMethod="pad"
       id="linearGradient12">
      <stop
         style="stop-opacity:1;stop-color:#57c9ee"
         offset="0"
         id="stop10" />
      <stop
         style="stop-opacity:1;stop-color:#121932"
         offset="0.9621398"
         id="stop11" />
      <stop
         style="stop-opacity:1;stop-color:#121932"
         offset="1"
         id="stop12" />
    </linearGradient>
    <clipPath
       clipPathUnits="userSpaceOnUse"
       id="clipPath12">
      <path
         d="m 6011.64,7336.06 c 0,0 533.88,290.23 723.79,795.45 0,0 53.75,120.93 86.89,224.84 33.14,103.91 74.35,239.17 92.26,352.04 17.92,112.86 64.5,247.23 223.95,247.23 159.45,0 186.32,-173.78 186.32,-275.9 0,-102.12 -152.28,-576.88 -550,-906.52 -397.73,-329.65 -763.21,-437.14 -763.21,-437.14 z"
         id="path12" />
    </clipPath>
    <linearGradient
       x1="0"
       y1="0"
       x2="1"
       y2="0"
       gradientUnits="userSpaceOnUse"
       gradientTransform="matrix(-2673.78,-5487.36,-5487.36,2673.78,6887.62,9166.75)"
       spreadMethod="pad"
       id="linearGradient15">
      <stop
         style="stop-opacity:1;stop-color:#57c9ee"
         offset="0"
         id="stop13" />
      <stop
         style="stop-opacity:1;stop-color:#121932"
         offset="0.9621398"
         id="stop14" />
      <stop
         style="stop-opacity:1;stop-color:#121932"
         offset="1"
         id="stop15" />
    </linearGradient>
    <clipPath
       clipPathUnits="userSpaceOnUse"
       id="clipPath15">
      <path
         d="m 6602.85,8830.21 c 0,0 213.2,-25.08 193.49,-231.11 -19.71,-206.03 -259.77,-729.16 -541.04,-940.56 0,0 154.07,274.11 182.73,680.79 0,0 8.96,113.76 -12.54,248.13 -21.5,134.36 22.4,247.23 177.36,242.75 z"
         id="path15" />
    </clipPath>
  </defs>
  <g
     inkscape:label="Layer 1"
     inkscape:groupmode="layer"
     id="layer1"
     transform="translate(-12.457774,-32.380508)">
    <g
       id="g2"
       aria-label="REINVIGORATE&#10;FOUNDATION"
       transform="matrix(0.23230306,0,0,0.23230306,93.593136,-41.5766)">
      <g
         id="g3"
         transform="translate(394.9486,443.34974)" />
    </g>
    <g
       id="g6">
      <g
         id="g1"
         transform="matrix(0.50568137,0,0,0.50568137,8.297495,28.135889)">
        <path
           id="path4"
           d="m 3876.12,3865.83 c 0,0 -318.9,1191.38 648.54,1779.01 0,0 367.27,220.36 1108.97,252.61 0,0 -915.48,-227.53 -954.9,-1069.56 0,0 125.41,442.51 535.68,680.79 0,0 155.86,102.12 446.09,193.49 290.23,91.37 558.97,191.69 802.61,440.72 243.66,249.02 473.87,676.31 508.81,826.8 0,0 -401.31,-622.57 -1128.68,-801.72 0,0 -129.89,-27.77 -309.04,-54.64 -179.16,-26.88 -677.21,-86.89 -1128.68,-328.75 -451.47,-241.86 -666.46,-878.76 -679.89,-1193.17 0,0 -354.73,519.55 -343.98,1365.16 10.75,845.61 252.61,1225.42 698.7,1644.64 0,0 -870.69,-515.97 -870.69,-1709.14 0,-1193.17 666.46,-2026.24 666.46,-2026.24"
           style="fill:url(#linearGradient6);fill-opacity:1;fill-rule:nonzero;stroke:none"
           transform="matrix(0.02323031,0,0,-0.02323031,-66.334321,216.43569)"
           clip-path="url(#clipPath6)" />
        <path
           id="path7"
           d="m 3682.63,4978.38 c 0,0 -456.84,1279.17 274.11,2230.48 0,0 302.32,382.94 870.69,553.59 564.34,204.24 865.32,373.54 940.57,494.47 0,0 142.42,-171.99 10.74,-400.42 -131.68,-228.42 -395.03,-448.78 -919.06,-545.52 0,0 338.6,-211.41 911.89,-125.41 573.3,85.99 1060.61,490.88 1264.84,723.78 204.24,232.91 429.97,530.3 515.97,906.53 0,0 35.83,26.87 37.62,-48.37 1.79,-75.25 10.75,-919.07 -763.2,-1623.15 -773.95,-704.07 -1607.02,-790.07 -1607.02,-790.07 0,0 -555.38,-128.99 -1024.77,-541.05 -469.38,-412.05 -512.38,-834.86 -512.38,-834.86"
           style="fill:url(#linearGradient9);fill-opacity:1;fill-rule:nonzero;stroke:none"
           transform="matrix(0.02323031,0,0,-0.02323031,-66.334321,216.43569)"
           clip-path="url(#clipPath9)" />
        <path
           id="path10"
           d="m 6011.64,7336.06 c 0,0 533.88,290.23 723.79,795.45 0,0 53.75,120.93 86.89,224.84 33.14,103.91 74.35,239.17 92.26,352.04 17.92,112.86 64.5,247.23 223.95,247.23 159.45,0 186.32,-173.78 186.32,-275.9 0,-102.12 -152.28,-576.88 -550,-906.52 -397.73,-329.65 -763.21,-437.14 -763.21,-437.14"
           style="fill:url(#linearGradient12);fill-opacity:1;fill-rule:nonzero;stroke:none"
           transform="matrix(0.02323031,0,0,-0.02323031,-66.334321,216.43569)"
           clip-path="url(#clipPath12)" />
        <path
           id="path13"
           d="m 6602.85,8830.21 c 0,0 213.2,-25.08 193.49,-231.11 -19.71,-206.03 -259.77,-729.16 -541.04,-940.56 0,0 154.07,274.11 182.73,680.79 0,0 8.96,113.76 -12.54,248.13 -21.5,134.36 22.4,247.23 177.36,242.75"
           style="fill:url(#linearGradient15);fill-opacity:1;fill-rule:nonzero;stroke:none"
           transform="matrix(0.02323031,0,0,-0.02323031,-66.334321,216.43569)"
           clip-path="url(#clipPath15)" />
      </g>
      <g
         id="g5"
         transform="matrix(1.1959621,0,0,1.1959621,-16.431364,-13.281115)">
        <path
           id="path2"
           d="M -416.69185,0.00104688 V -22.639578 h 8.46093 l 14.4375,22.64062488 h 16.13672 L -394.14498,-24.690359 c 9.09375,-3.023438 14.4375,-9.890625 14.4375,-18.527344 0,-13.289063 -9.36328,-20.765625 -25.48828,-20.765625 h -25.04297 V 0.00104688 Z m 0,-52.75781288 h 10.875 c 8.1914,0 12.5625,3.210938 12.5625,9.539063 0,6.234375 -4.3711,9.445312 -12.5625,9.445312 h -10.875 z m 90.54785,40.992188 h -29.4961 v -15.328125 h 26.20313 v -11.671875 h -26.20313 v -13.464844 h 28.875 v -11.753906 h -42.42187 V 0.00104688 h 43.04297 z m 24.06738,11.76562488 V -63.983328 H -315.6235 V 0.00104688 Z m 54.80859,0 h 13.27735 V -63.983328 h -12.48047 v 42.421875 l -27.89063,-42.421875 h -14.61328 V 0.00104688 h 12.38672 V -44.647391 Z m 81.55371,-63.98437488 h -13.54687 l -16.58203,48.210937 -16.21875,-48.210937 h -14.61328 l 22.99218,63.98437488 h 14.78907 z m 20.85645,63.98437488 V -63.983328 h -13.54688 V 0.00104688 Z m 42.32812,1.33593752 c 20.414074,0 33.070324,-14.9765624 32.261724,-35.8242184 h -32.976564 v 10.78125 h 18.539064 c -1.78125,7.933593 -7.74609,13.546875 -17.203124,13.546875 -12.83203,0 -19.6875,-9.445313 -19.6875,-21.75 0,-13.722657 7.83984,-21.292969 18.17578,-21.292969 8.554694,0 14.437504,4.898437 16.394534,11.402344 h 15.96094 c -4.19532,-13.898438 -15.77344,-23.519532 -31.992194,-23.519532 -18.71484,0 -32.44922,14.167969 -32.44922,33.058594 0,19.78125 14.4375,33.5976564 32.97656,33.5976564 z m 70.672854,0 c 18.53907,0 32.8945398,-14.2617184 32.8945398,-33.4218754 0,-19.160156 -14.3554698,-33.234375 -32.8945398,-33.234375 -18.44531,0 -32.70703,14.074219 -32.70703,33.234375 0,19.160157 14.26172,33.4218754 32.70703,33.4218754 z m 0,-12.1171874 c -11.67187,0 -18.79687,-9.539063 -18.79687,-21.304688 0,-11.765625 7.125,-21.117187 18.79687,-21.117187 11.76563,0 18.90235,9.351562 18.90235,21.117187 0,11.765625 -7.13672,21.304688 -18.90235,21.304688 z M 23.944864,0.00104688 V -22.639578 h 8.46094 l 14.4375,22.64062488 h 16.13672 L 46.491744,-24.690359 c 9.09375,-3.023438 14.4375,-9.890625 14.4375,-18.527344 0,-13.289063 -9.36328,-20.765625 -25.48828,-20.765625 H 10.397994 V 0.00104688 Z m 0,-52.75781288 h 10.875 c 8.19141,0 12.5625,3.210938 12.5625,9.539063 0,6.234375 -4.37109,9.445312 -12.5625,9.445312 h -10.875 z M 113.77787,0.00104688 h 14.53125 L 104.42631,-63.983328 H 89.625534 l -24.0586,63.98437488 h 13.62891 L 84.105994,-13.721609 H 108.96146 Z M 96.668494,-49.194266 105.22318,-24.502859 H 87.938034 Z M 159.14701,0.00104688 V -51.784109 h 20.22656 V -63.983328 H 125.4556 v 12.199219 h 20.14454 V 0.00104688 Z m 71.3877,-11.76562488 h -29.4961 v -15.328125 h 26.20313 v -11.671875 h -26.20313 v -13.464844 h 28.875 V -63.983328 H 187.49174 V 0.00104688 h 43.04297 z m 0,0"
           style="fill:#373636;fill-opacity:1;fill-rule:nonzero;stroke:none"
           transform="matrix(0.23230306,0,0,0.23230306,185.34091,61.414901)" />
        <path
           id="path3"
           d="M -284.34726,79.748443 V 64.502349 h 14.35547 v -3.222656 h -14.35547 V 47.416412 h 16.6875 v -3.222657 h -20.40235 v 35.554688 z m 45.00293,0.738281 c 10.30078,0 17.97656,-8.214844 17.97656,-18.5625 0,-10.347656 -7.67578,-18.46875 -17.97656,-18.46875 -10.28907,0 -17.91797,8.121094 -17.91797,18.46875 0,10.347656 7.6289,18.5625 17.91797,18.5625 z m 0,-3.316406 c -8.36719,0 -14.10938,-6.726563 -14.10938,-15.246094 0,-8.519531 5.74219,-15.152344 14.10938,-15.152344 8.42578,0 14.12109,6.632813 14.12109,15.152344 0,8.519531 -5.69531,15.246094 -14.12109,15.246094 z m 56.74804,-32.976563 h -3.71484 V 67.77188 c 0,5.789063 -3.76172,9.398438 -9.25781,9.398438 -5.4961,0 -9.30469,-3.609375 -9.30469,-9.398438 V 44.193755 h -3.71484 v 23.378907 c 0,7.96875 5.14453,12.914062 13.01953,12.914062 7.82812,0 12.97265,-4.945312 12.97265,-12.914062 z m 39.06446,35.554688 h 3.96093 V 44.193755 h -3.51562 v 29.90625 l -20.54297,-29.90625 h -4.11328 v 35.554688 h 3.46875 V 49.443755 Z m 29.01562,0 c 11.14453,0 17.67188,-7.675781 17.67188,-17.917969 0,-10.40625 -6.28125,-17.636719 -17.67188,-17.636719 h -10.10156 v 35.554688 z m -6.38672,-32.332031 h 6.29297 c 9.10547,0 14.00391,5.648437 14.00391,14.414062 0,8.8125 -4.99219,14.695313 -14.00391,14.695313 h -6.29297 z m 59.71289,32.332031 h 3.91407 L -71.04551,44.193755 h -4.05468 L -88.9166,79.748443 h 3.66797 l 3.76172,-9.855469 h 16.58203 z m -11.97656,-31.59375 7.07813,18.714844 h -14.26172 z m 37.42383,31.59375 V 47.52188 h 11.9414 v -3.328125 h -27.52734 v 3.328125 h 11.92969 v 32.226563 z m 27.5830096,0 V 44.193755 H -11.87461 V 79.748443 Z M 22.68399,80.486724 c 10.30078,0 17.97656,-8.214844 17.97656,-18.5625 0,-10.347656 -7.67578,-18.46875 -17.97656,-18.46875 -10.28907,0 -17.9179704,8.121094 -17.9179704,18.46875 0,10.347656 7.6289004,18.5625 17.9179704,18.5625 z m 0,-3.316406 c -8.36719,0 -14.1093802,-6.726563 -14.1093802,-15.246094 0,-8.519531 5.7421902,-15.152344 14.1093802,-15.152344 8.42578,0 14.12109,6.632813 14.12109,15.152344 0,8.519531 -5.69531,15.246094 -14.12109,15.246094 z m 55.060542,2.578125 h 3.96094 V 44.193755 h -3.51562 v 29.90625 l -20.54297,-29.90625 h -4.11328 v 35.554688 h 3.46875 V 49.443755 Z m 0,0"
           style="fill:#373636;fill-opacity:1;fill-rule:nonzero;stroke:none"
           transform="matrix(0.23230306,0,0,0.23230306,185.34091,61.414901)" />
        <g
           id="g4">
          <path
             id="path16"
             d="m 238.89482,76.304345 h -30.54901 v -0.6904 h 30.54901 v 0.6904"
             style="fill:#373636;fill-opacity:1;fill-rule:nonzero;stroke:none;stroke-width:0.0232303" />
          <path
             id="path17"
             d="M 114.39872,76.304345 H 83.849711 v -0.6904 h 30.549009 v 0.6904"
             style="fill:#373636;fill-opacity:1;fill-rule:nonzero;stroke:none;stroke-width:0.0232303" />
        </g>
      </g>
    </g>
  </g>
</svg>
